<svg  xmlns="http://www.w3.org/2000/svg">
    <symbol viewBox="0 0 320 512" id="arrow-left">
        <g>
 		<path d="M34.52 239.03L228.87 44.69c9.37-9.37 24.57-9.37 33.94 0l22.67 22.67c9.36 9.36 9.37 24.52.04 33.9L131.49 256l154.02 154.75c9.34 9.38 9.32 24.54-.04 33.9l-22.67 22.67c-9.37 9.37-24.57 9.37-33.94 0L34.52 272.97c-9.37-9.37-9.37-24.57 0-33.94z"></path>
        </g>
    </symbol>
    <symbol viewBox="0 0 320 512" id="arrow-right">
        <g>	
		<path d="M285.476 272.971L91.132 467.314c-9.373 9.373-24.569 9.373-33.941 0l-22.667-22.667c-9.357-9.357-9.375-24.522-.04-33.901L188.505 256 34.484 101.255c-9.335-9.379-9.317-24.544.04-33.901l22.667-22.667c9.373-9.373 24.569-9.373 33.941 0L285.475 239.03c9.373 9.372 9.373 24.568.001 33.941z"></path>
        </g>
    </symbol>
    <symbol id="burger" viewBox="0 -21 384 384">
        <g>
            <path d="m362.667969 0h-341.335938c-11.753906 0-21.332031 9.578125-21.332031 21.332031v42.667969c0 11.753906 9.578125 21.332031 21.332031 21.332031h341.335938c11.753906 0 21.332031-9.578125 21.332031-21.332031v-42.667969c0-11.753906-9.578125-21.332031-21.332031-21.332031zm0 0"/>
	    <path d="m362.667969 128h-341.335938c-11.753906 0-21.332031 9.578125-21.332031 21.332031v42.667969c0 11.753906 9.578125 21.332031 21.332031 21.332031h341.335938c11.753906 0 21.332031-9.578125 21.332031-21.332031v-42.667969c0-11.753906-9.578125-21.332031-21.332031-21.332031zm0 0"/>
	    <path d="m362.667969 256h-341.335938c-11.753906 0-21.332031 9.578125-21.332031 21.332031v42.667969c0 11.753906 9.578125 21.332031 21.332031 21.332031h341.335938c11.753906 0 21.332031-9.578125 21.332031-21.332031v-42.667969c0-11.753906-9.578125-21.332031-21.332031-21.332031zm0 0"/>
        </g>
    </symbol>
    <symbol viewBox="0 0 384 512" id="location">
        <g>
            <path d="M172.268 501.67C26.97 291.031 0 269.413 0 192 0 85.961 85.961 0 192 0s192 85.961 192 192c0 77.413-26.97 99.031-172.268 309.67-9.535 13.774-29.93 13.773-39.464 0zM192 272c44.183 0 80-35.817 80-80s-35.817-80-80-80-80 35.817-80 80 35.817 80 80 80z"></path>
        </g>
    </symbol>
    <symbol id="logotype" >
        <g>
<path d="M238.6 43.6L237.2 43.6 237.2 45.8 236.5 45.8 236.5 39.7 238.8 39.7C240.1 39.7 241 40.4 241 41.6L241 41.6C241 43 239.9 43.6 238.6 43.6ZM240.3 41.7C240.3 40.8 239.7 40.3 238.7 40.3L237.2 40.3 237.2 43 238.7 43C239.7 43 240.3 42.5 240.3 41.7L240.3 41.7ZM231.4 30.2C226 30.2 221.9 26 221.9 20.8L221.9 20.8C221.9 15.5 226 11.3 231.5 11.3 237 11.3 241 15.5 241 20.7L241 20.8C241 26 236.9 30.2 231.4 30.2ZM236 20.8C236 18.1 234.2 15.8 231.4 15.8 228.8 15.8 227 18.1 227 20.7L227 20.8C227 23.4 228.8 25.7 231.5 25.7 234.2 25.7 236 23.4 236 20.8L236 20.8ZM218.6 45.9C216.8 45.9 215.5 44.4 215.5 42.8L215.5 42.7C215.5 41.1 216.8 39.6 218.6 39.6 220.4 39.6 221.7 41 221.7 42.7L221.7 42.7C221.7 44.4 220.4 45.9 218.6 45.9ZM221 42.7C221 41.4 220 40.2 218.6 40.2 217.2 40.2 216.2 41.3 216.2 42.7L216.2 42.7C216.2 44.1 217.2 45.2 218.6 45.2 220 45.2 221 44.1 221 42.8L221 42.7ZM205.5 11.7L210.4 11.7 210.4 25.4 218.9 25.4 218.9 29.9 205.5 29.9 205.5 11.7ZM198.8 45.9C196.9 45.9 195.7 44.5 195.7 42.8L195.7 42.7C195.7 41.1 196.9 39.6 198.7 39.6 199.8 39.6 200.4 39.9 201 40.4L200.5 40.9C200.1 40.5 199.6 40.2 198.7 40.2 197.4 40.2 196.4 41.4 196.4 42.7L196.4 42.7C196.4 44.2 197.3 45.3 198.8 45.3 199.5 45.3 200.1 45 200.5 44.7L200.5 43.1 198.7 43.1 198.7 42.5 201.2 42.5 201.2 44.9C200.6 45.4 199.8 45.9 198.8 45.9ZM187.4 11.7L192.3 11.7 192.3 25.4 200.8 25.4 200.8 29.9 187.4 29.9 187.4 11.7ZM181.2 39.7L181.9 39.7 181.9 45.1 185.3 45.1 185.3 45.8 181.2 45.8 181.2 39.7ZM168 11.7L182.2 11.7 182.2 16 172.8 16 172.8 18.7 181.3 18.7 181.3 22.7 172.8 22.7 172.8 25.6 182.3 25.6 182.3 29.9 168 29.9 168 11.7ZM161.4 40.8L161.4 45.8 160.8 45.8 160.8 39.7 161.4 39.7 165.2 44.6 165.2 39.7 165.9 39.7 165.9 45.8 165.3 45.8 161.4 40.8ZM155.7 25.6C157.5 25.6 158.6 24.7 159.7 23.4L163.3 26.1C161.7 28.5 159.4 30.2 155.5 30.2 150.5 30.2 146.4 26.2 146.4 20.8L146.4 20.8C146.4 15.5 150.4 11.3 155.7 11.3 159.3 11.3 161.7 12.9 163.2 15.1L159.5 18C158.5 16.7 157.4 15.9 155.7 15.9 153.2 15.9 151.4 18.1 151.4 20.7L151.4 20.8C151.4 23.5 153.2 25.6 155.7 25.6ZM144.2 39.7L144.8 39.7 144.8 45.8 144.2 45.8 144.2 39.7ZM136.3 11.7L141.2 11.7 141.2 29.9 136.3 29.9 136.3 11.7ZM139.4 40.3L137.4 40.3 137.4 45.8 136.7 45.8 136.7 40.3 134.7 40.3 134.7 39.7 139.4 39.7 139.4 40.3ZM126.2 29.9L121.3 29.9 121.3 16.1 116 16.1 116 11.7 131.5 11.7 131.5 16.1 126.2 16.1 126.2 29.9ZM119.9 44.6L119.9 39.7 120.5 39.7 120.5 45.8 120 45.8 116.1 40.8 116.1 45.8 115.4 45.8 115.4 39.7 116.1 39.7 119.9 44.6ZM99.5 19.9L99.5 29.9 94.6 29.9 94.6 11.7 99.2 11.7 106.5 21.3 106.5 11.7 111.3 11.7 111.3 29.9 107 29.9 99.5 19.9ZM89.9 45.8L89.2 45.8 89.2 40.3 87.2 40.3 87.2 39.7 91.9 39.7 91.9 40.3 89.9 40.3 89.9 45.8ZM80 30.2C74.5 30.2 70.5 26 70.5 20.8L70.5 20.8C70.5 15.5 74.6 11.3 80 11.3 85.5 11.3 89.5 15.5 89.5 20.7L89.5 20.8C89.5 26 85.4 30.2 80 30.2ZM84.5 20.8C84.5 18.1 82.7 15.8 80 15.8 77.3 15.8 75.5 18.1 75.5 20.7L75.5 20.8C75.5 23.4 77.4 25.7 80 25.7 82.7 25.7 84.5 23.4 84.5 20.8L84.5 20.8ZM68 53.8L67.7 54 36.4 0.2 36.7 0 46.6 17 46.6 11.7 51.8 11.7 56 18.7 60.2 11.7 65.4 11.7 65.4 29.9 60.5 29.9 60.5 19.4 56 26.5 55.9 26.5 51.4 19.5 51.4 25.2 68 53.8ZM31 13L51.5 48.1 22.9 48.4 25.2 42.8 41.9 42.6 31.1 24.1 17.4 48.4 0 48.6 25.7 3.8 29 9.4 9.7 42.9 14.2 42.9 31 13ZM72.2 45.8L71.5 45.8 71.5 39.7 72.2 39.7 72.2 45.8ZM81.8 44.6L81.8 39.7 82.5 39.7 82.5 45.8 81.9 45.8 78 40.8 78 45.8 77.4 45.8 77.4 39.7 78 39.7 81.8 44.6ZM100.9 40.3L97.3 40.3 97.3 42.4 100.6 42.4 100.6 43 97.3 43 97.3 45.1 101 45.1 101 45.8 96.6 45.8 96.6 39.7 100.9 39.7 100.9 40.3ZM110.1 40.3C110.4 40.6 110.5 41 110.5 41.5L110.5 41.5C110.5 42.5 109.9 43.1 108.9 43.3L110.8 45.8 109.9 45.8 108.2 43.4 106.5 43.4 106.5 45.8 105.8 45.8 105.8 39.7 108.4 39.7C109.1 39.7 109.7 39.9 110.1 40.3ZM106.5 40.3L106.5 42.8 108.3 42.8C109.2 42.8 109.9 42.3 109.9 41.6L109.9 41.5C109.9 40.8 109.3 40.3 108.3 40.3L106.5 40.3ZM128.5 39.7L131.3 45.8 130.5 45.8 129.8 44.2 126.5 44.2 125.8 45.8 125.1 45.8 127.9 39.7 128.5 39.7ZM129.6 43.6L128.2 40.5 126.8 43.6 129.6 43.6ZM152.9 39.6C154.7 39.6 155.9 41 155.9 42.7L155.9 42.7C155.9 44.4 154.7 45.9 152.8 45.9 151 45.9 149.8 44.4 149.8 42.8L149.8 42.7C149.8 41.1 151 39.6 152.9 39.6ZM150.5 42.7C150.5 44.1 151.5 45.2 152.9 45.2 154.2 45.2 155.2 44.1 155.2 42.8L155.2 42.7C155.2 41.4 154.2 40.2 152.8 40.2 151.5 40.2 150.5 41.3 150.5 42.7L150.5 42.7ZM173.9 39.7L176.6 45.8 175.9 45.8 175.2 44.2 171.9 44.2 171.2 45.8 170.5 45.8 173.2 39.7 173.9 39.7ZM174.9 43.6L173.5 40.5 172.2 43.6 174.9 43.6ZM210.5 40.3C210.7 40.6 210.9 41 210.9 41.5L210.9 41.5C210.9 42.5 210.2 43.1 209.3 43.3L211.1 45.8 210.3 45.8 208.6 43.4 206.8 43.4 206.8 45.8 206.2 45.8 206.2 39.7 208.7 39.7C209.5 39.7 210.1 39.9 210.5 40.3ZM206.8 40.3L206.8 42.8 208.7 42.8C209.6 42.8 210.2 42.3 210.2 41.6L210.2 41.5C210.2 40.8 209.7 40.3 208.7 40.3L206.8 40.3ZM227.1 43.2C227.1 44.5 227.8 45.2 229 45.2 230.1 45.2 230.8 44.6 230.8 43.2L230.8 39.7 231.5 39.7 231.5 43.2C231.5 44.9 230.5 45.9 228.9 45.9 227.5 45.9 226.5 44.9 226.5 43.2L226.5 39.7 227.1 39.7 227.1 43.2Z"/>
	</g>
    </symbol>
    <symbol id="facebook-icon" viewBox="0 0 320 512">
        <g>
	    <path d="M279.14 288l14.22-92.66h-88.91v-60.13c0-25.35 12.42-50.06 52.24-50.06h40.42V6.26S260.43 0 225.36 0c-73.22 0-121.08 44.38-121.08 124.72v70.62H22.89V288h81.39v224h100.17V288z"></path>
        </g>
    </symbol>
    <symbol id="instagram-icon" viewBox="0 0 448 512">
        <g>
            <path d="M224.1 141c-63.6 0-114.9 51.3-114.9 114.9s51.3 114.9 114.9 114.9S339 319.5 339 255.9 287.7 141 224.1 141zm0 189.6c-41.1 0-74.7-33.5-74.7-74.7s33.5-74.7 74.7-74.7 74.7 33.5 74.7 74.7-33.6 74.7-74.7 74.7zm146.4-194.3c0 14.9-12 26.8-26.8 26.8-14.9 0-26.8-12-26.8-26.8s12-26.8 26.8-26.8 26.8 12 26.8 26.8zm76.1 27.2c-1.7-35.9-9.9-67.7-36.2-93.9-26.2-26.2-58-34.4-93.9-36.2-37-2.1-147.9-2.1-184.9 0-35.8 1.7-67.6 9.9-93.9 36.1s-34.4 58-36.2 93.9c-2.1 37-2.1 147.9 0 184.9 1.7 35.9 9.9 67.7 36.2 93.9s58 34.4 93.9 36.2c37 2.1 147.9 2.1 184.9 0 35.9-1.7 67.7-9.9 93.9-36.2 26.2-26.2 34.4-58 36.2-93.9 2.1-37 2.1-147.8 0-184.8zM398.8 388c-7.8 19.6-22.9 34.7-42.6 42.6-29.5 11.7-99.5 9-132.1 9s-102.7 2.6-132.1-9c-19.6-7.8-34.7-22.9-42.6-42.6-11.7-29.5-9-99.5-9-132.1s-2.6-102.7 9-132.1c7.8-19.6 22.9-34.7 42.6-42.6 29.5-11.7 99.5-9 132.1-9s102.7-2.6 132.1 9c19.6 7.8 34.7 22.9 42.6 42.6 11.7 29.5 9 99.5 9 132.1s2.7 102.7-9 132.1z"></path>
        </g>
    </symbol>
    <symbol id="twitter-icon" viewBox="0 0 512 512">
        <g>
            <path d="M459.37 151.716c.325 4.548.325 9.097.325 13.645 0 138.72-105.583 298.558-298.558 298.558-59.452 0-114.68-17.219-161.137-47.106 8.447.974 16.568 1.299 25.34 1.299 49.055 0 94.213-16.568 130.274-44.832-46.132-.975-84.792-31.188-98.112-72.772 6.498.974 12.995 1.624 19.818 1.624 9.421 0 18.843-1.3 27.614-3.573-48.081-9.747-84.143-51.98-84.143-102.985v-1.299c13.969 7.797 30.214 12.67 47.431 13.319-28.264-18.843-46.781-51.005-46.781-87.391 0-19.492 5.197-37.36 14.294-52.954 51.655 63.675 129.3 105.258 216.365 109.807-1.624-7.797-2.599-15.918-2.599-24.04 0-57.828 46.782-104.934 104.934-104.934 30.213 0 57.502 12.67 76.67 33.137 23.715-4.548 46.456-13.32 66.599-25.34-7.798 24.366-24.366 44.833-46.132 57.827 21.117-2.273 41.584-8.122 60.426-16.243-14.292 20.791-32.161 39.308-52.628 54.253z"></path>
        </g>
    </symbol>
    <symbol id="arrow-down" viewBox="0 0 30.7 30.7">
        <g>
            <path d="M30 10.2L15.4 24.8 0.7 10.2c-1-1-1-2.6 0-3.5 1-1 2.6-1 3.5 0l11.1 11.1L26.5 6.6c1-1 2.6-1 3.5 0C31 7.6 31 9.2 30 10.2z"/>
        </g>
    </symbol>
    <symbol id="phone" viewBox="0 0 348.1 348.1">
        <g>
            <path d="M340.3 275.1l-53.8-53.8c-10.7-10.7-28.4-10.3-39.5 0.7l-27.1 27.1c-1.7-0.9-3.5-1.9-5.3-3 -17.1-9.5-40.5-22.5-65.1-47.1 -24.7-24.7-37.7-48.1-47.2-65.3 -1-1.8-2-3.6-2.9-5.2l18.2-18.1 8.9-8.9c11.1-11.1 11.4-28.8 0.7-39.5L73.4 8.2C62.7-2.5 45-2.2 33.9 8.9l-15.1 15.2 0.4 0.4c-5.1 6.5-9.3 14-12.5 22C3.7 54.3 1.9 61.6 1.1 68.9 -6 127.8 20.9 181.6 93.9 254.5c100.9 100.9 182.2 93.2 185.7 92.9 7.6-0.9 15-2.7 22.4-5.6 8-3.1 15.5-7.4 21.9-12.4l0.3 0.3 15.3-15C350.6 303.5 351 285.8 340.3 275.1z"/>
	</g>
    </symbol>
    <symbol id="clock" viewBox="0 0 97.2 97.2">
        <g>
            <path d="M48.6 0C21.8 0 0 21.8 0 48.6s21.8 48.6 48.6 48.6 48.6-21.8 48.6-48.6S75.4 0 48.6 0zM48.6 86.8c-21.1 0-38.2-17.2-38.2-38.2S27.5 10.3 48.6 10.3 86.8 27.5 86.8 48.6 69.7 86.8 48.6 86.8zM73.9 47.1H52.1V20.8c0-2.2-1.8-4-4-4 -2.2 0-4 1.8-4 4v30.3c0 2.2 1.8 4 4 4h25.8c2.2 0 4-1.8 4-4S76.1 47.1 73.9 47.1z"/>
        </g>
    </symbol>
    <symbol id="mail" viewBox="0 -59 496 495">
        <g>
            <path d="m248 288.5c-61.855469 0-112-50.144531-112-112h-128v192h480v-192h-128c0 61.855469-50.144531 112-112 112zm-160 48"/><path d="m495.480469 173.652344-64-168c-1.183594-3.105469-4.160157-5.152344-7.480469-5.152344h-352c-3.320312 0-6.296875 2.046875-7.480469 5.152344l-64 168c-.292969.824218-.4492185 1.6875-.4648435 2.558594 0 .105468-.0546875.183593-.0546875.289062v192c0 4.417969 3.582031 8 8 8h480c4.417969 0 8-3.582031 8-8v-192c0-.105469-.054688-.183594-.054688-.289062-.015624-.871094-.171874-1.734376-.464843-2.558594zm-417.96875-157.152344h340.976562l57.902344 152h-116.390625c-4.417969 0-8 3.582031-8 8 0 57.4375-46.5625 104-104 104s-104-46.5625-104-104c0-4.417969-3.582031-8-8-8h-116.390625zm402.488281 344h-464v-176h112.265625c4.1875 63.046875 56.546875 112.042969 119.734375 112.042969s115.546875-48.996094 119.734375-112.042969h112.265625zm0 0"/></g>
        </g>
    </symbol>
    
    <symbol id="menu" >
        <g>
            <path d="M53.3 106.7H416c29.4 0 53.3-23.9 53.3-53.3S445.4 0 416 0H53.3C23.9 0 0 23.9 0 53.3S23.9 106.7 53.3 106.7zM416 181.3H53.3C23.9 181.3 0 205.3 0 234.7S23.9 288 53.3 288H416c29.4 0 53.3-23.9 53.3-53.3S445.4 181.3 416 181.3zM416 362.7H53.3C23.9 362.7 0 386.6 0 416s23.9 53.3 53.3 53.3H416c29.4 0 53.3-23.9 53.3-53.3S445.4 362.7 416 362.7z"/>
        </g>
    </symbol>
    <symbol>
        <g>
            
        </g>
    </symbol>
    <symbol>
        <g>
            
        </g>
    </symbol>
</svg>