<?xml-stylesheet type="text/css" href="../css/style.css"?><svg class="card-icon" xmlns="http://www.w3.org/2000/svg" version="1.1" x="0" y="0" viewBox="0 0 23.6 23.6" xml:space="preserve"><path d="M7 19c2.1 0 3.9-1.5 4.8-2.5 1 1 2.7 2.5 4.8 2.5 3.6 0 6.1-2.5 6.1-6.1 0-3.9-3.1-6.5-6.1-8.9 -1.4-1.2-2.9-2.4-4-3.7C12.4 0.1 12.1 0 11.9 0h-0.1c-0.3 0-0.6 0.1-0.8 0.4 -1.1 1.3-2.6 2.5-4 3.7 -3 2.5-6.1 5-6.1 8.9C0.9 16.6 3.4 19 7 19zM8.1 23.6c2.5-0.4 5-0.4 7.4 0 -2.5-3.7-3.7-10.8-3.7-10.8S10.6 19.9 8.1 23.6z"/></svg>