<?xml-stylesheet type="text/css" href="../css/style.css"?><svg class="basket-icon" xmlns="http://www.w3.org/2000/svg" version="1.1" x="0" y="0" viewBox="0 0 209 209" xml:space="preserve"><path d="M190.9 200.2L178.1 58.6c-0.3-3.9-3.6-6.8-7.5-6.8h-26.2V40c0-22-17.9-40-40-40C82.4 0 64.5 17.9 64.5 40v11.8H38.3c-3.9 0-7.1 3-7.5 6.8L18 200.8c-0.2 2.1 0.5 4.2 1.9 5.7s3.4 2.4 5.5 2.4h157.9c0 0 0 0 0 0 4.1 0 7.5-3.4 7.5-7.5C191 201 190.9 200.6 190.9 200.2zM79.5 40c0-13.8 11.2-25 25-25 13.8 0 25 11.2 25 25v11.8H79.5V40zM33.7 194L45.1 66.8h19.4v13.4c0 4.1 3.4 7.5 7.5 7.5 4.1 0 7.5-3.4 7.5-7.5V66.8h49.9v13.4c0 4.1 3.4 7.5 7.5 7.5 4.1 0 7.5-3.4 7.5-7.5V66.8h19.4l11.4 127.2H33.7z"/></svg>