<?xml-stylesheet type="text/css" href="../css/style.css"?><svg class="message-icon" xmlns="http://www.w3.org/2000/svg" version="1.1" x="0" y="0" viewBox="0 0 512 512" xml:space="preserve"><path d="M111 238h290c11 0 20-9 20-20s-9-20-20-20H111c-11 0-20 9-20 20S100 238 111 238zM111 146h290c11 0 20-9 20-20 0-11-9-20-20-20H111c-11 0-20 9-20 20S100 146 111 146zM111 330h290c11 0 20-9 20-20 0-11-9-20-20-20H111c-11 0-20 9-20 20C91 321 100 330 111 330zM492 0H20C9 0 0 9 0 20v396c0 11 9 20 20 20h177l42.1 66.7c3.7 5.8 10 9.3 16.9 9.3 6.9 0 13.2-3.5 16.9-9.3L315 436H492c11 0 20-9 20-20V20C512 9 503 0 492 0zM472 396H304c-6.9 0-13.2 3.5-16.9 9.3L256 454.5l-31.1-49.2c-3.7-5.8-10-9.3-16.9-9.3H40V40h432V396z"/></svg>